<svg fill="none" height="64" viewBox="0 0 64 64" width="64" xmlns="http://www.w3.org/2000/svg"><rect fill="#fff" height="64" rx="6" width="64"/><path d="m37.195 22.244a3.131 3.131 0 0 0 3.122-3.122 3.131 3.131 0 0 0 -3.122-3.122 3.131 3.131 0 0 0 -3.122 3.122 3.131 3.131 0 0 0 3.122 3.122zm-16.39 10.146c-4.37 0-7.805 3.434-7.805 7.805 0 4.37 3.434 7.805 7.805 7.805 4.37 0 7.805-3.434 7.805-7.805 0-4.37-3.434-7.805-7.805-7.805zm0 13.268c-2.966 0-5.463-2.497-5.463-5.463s2.497-5.463 5.463-5.463 5.463 2.497 5.463 5.463-2.497 5.463-5.463 5.463zm9.053-15.61 3.747-3.746 1.249 1.25c2.029 2.029 4.683 3.277 7.96 3.277v-3.122c-2.34 0-4.214-.936-5.619-2.341l-2.965-2.966c-.78-.624-1.56-.937-2.497-.937s-1.717.313-2.186.937l-4.37 4.37c-.625.625-.937 1.406-.937 2.186 0 .937.312 1.717.937 2.186l4.995 4.37v7.805h3.122v-9.677l-3.434-3.59zm12.8 2.342c-4.37 0-7.804 3.434-7.804 7.805 0 4.37 3.434 7.805 7.804 7.805 4.371 0 7.805-3.434 7.805-7.805 0-4.37-3.434-7.805-7.805-7.805zm0 13.268c-2.965 0-5.463-2.497-5.463-5.463s2.498-5.463 5.463-5.463c2.966 0 5.464 2.497 5.464 5.463s-2.498 5.463-5.464 5.463z" fill="#ff0101"/></svg>