<svg fill="none" height="64" viewBox="0 0 64 64" width="64" xmlns="http://www.w3.org/2000/svg"><rect fill="#fff" height="64" rx="6" width="64"/><path d="m29.333 26.667-4.333 4.333c.413.16.747.36 1.027.52.493.307.786.48 1.533.48s1.04-.173 1.533-.48c.614-.36 1.44-.853 2.92-.853s2.307.493 2.907.853c.493.293.8.48 1.533.48.734 0 1.04-.173 1.534-.48.16-.093.346-.2.546-.307l-8.56-8.546c-2.066-2.067-3.973-2.68-7.306-2.667v3.333c2.426-.013 3.853.52 5.333 2zm16 11.333h-.026zm-22.2-1.333c.734 0 1.04.186 1.534.48.6.36 1.426.853 2.906.853s2.307-.493 2.907-.853c.493-.307.787-.48 1.533-.48.734 0 1.04.186 1.534.48.6.36 1.426.853 2.906.853s2.307-.493 2.907-.853c.493-.307.787-.48 1.533-.48.734 0 1.04.186 1.534.48.6.36 1.413.84 2.88.853v-2.667c-.734 0-1.04-.186-1.534-.48-.6-.36-1.426-.853-2.906-.853s-2.307.493-2.907.853c-.493.307-.8.48-1.533.48-.734 0-1.04-.186-1.534-.48-.6-.36-1.426-.853-2.906-.853s-2.307.493-2.907.853c-.493.307-.787.48-1.533.48-.734 0-1.04-.186-1.534-.48-.6-.36-1.426-.853-2.906-.853s-2.307.493-2.907.853c-.493.307-.787.48-1.533.48v2.667c1.48 0 2.306-.493 2.933-.853.493-.307.8-.48 1.533-.48zm17.76 3.333c-1.48 0-2.306.493-2.906.853-.494.307-.8.48-1.534.48-.733 0-1.04-.186-1.533-.48-.6-.36-1.427-.853-2.907-.853s-2.306.493-2.92.853c-.493.307-.786.48-1.533.48s-1.04-.173-1.533-.48c-.6-.36-1.427-.853-2.907-.853s-2.307.493-2.92.853c-.493.307-.787.48-1.533.48v2.667c1.48 0 2.306-.493 2.92-.853.493-.307.8-.48 1.533-.48s1.04.173 1.533.48c.6.36 1.427.853 2.907.853s2.307-.493 2.92-.853c.493-.307.787-.48 1.533-.48.734 0 1.04.186 1.534.48.6.36 1.426.853 2.906.853s2.294-.493 2.907-.853c.493-.307.787-.48 1.533-.48.734 0 1.04.186 1.534.48.6.36 1.426.853 2.906.853v-2.667c-.746 0-1.04-.173-1.533-.48-.6-.36-1.427-.853-2.907-.853zm-2.893-13.333a3.333 3.333 0 1 0 0-6.667 3.333 3.333 0 0 0 0 6.667z" fill="#ff0101"/></svg>